<svg xmlns="http://www.w3.org/2000/svg" xmlns:xlink="http://www.w3.org/1999/xlink" width="375" height="812" viewBox="0 0 375 812">
  <defs>
    <clipPath id="clip-_1">
      <rect width="375" height="812"/>
    </clipPath>
  </defs>
  <g id="_1" data-name="1" clip-path="url(#clip-_1)">
    <rect width="375" height="812" fill="#fff"/>
    <g id="Logo" transform="translate(-270.057 -367.104)" opacity="0">
      <path id="Path_2" data-name="Path 2" d="M1370.057,1229.718l29.934,60,30.066-60-30.066-60Z" transform="translate(-938.333 -1059)" fill="#7e14be" stroke="#7e14bc" stroke-width="1"/>
      <path id="Path_3" data-name="Path 3" d="M1370.057,1229.718l29.934,60,30.066-60-30.066-60Z" transform="translate(-1063 -993)" fill="#7e14be" stroke="#7e14bc" stroke-width="1"/>
      <path id="Path_4" data-name="Path 4" d="M1370.057,1229.718l29.934,60,30.066-60-30.066-60Z" transform="translate(-810 -993)" fill="#7e14be" stroke="#7e14bc" stroke-width="1"/>
      <path id="Path_5" data-name="Path 5" d="M1370.057,1229.718l29.934,60,30.066-60-30.066-60Z" transform="translate(-601 -645.669)" fill="#7e14be" stroke="#7e14bc" stroke-width="1"/>
      <path id="Path_6" data-name="Path 6" d="M1370.057,1229.718l29.934,60,30.066-60-30.066-60Z" transform="translate(-1281 -645.669)" fill="#7e14be" stroke="#7e14bc" stroke-width="1"/>
      <path id="Path_7" data-name="Path 7" d="M1370.057,1229.718l29.934,60,30.066-60-30.066-60Z" transform="translate(-1316 -435.872)" fill="#7e14be" stroke="#7e14bc" stroke-width="1"/>
      <path id="Path_8" data-name="Path 8" d="M1370.057,1229.718l29.934,60,30.066-60-30.066-60Z" transform="translate(-568 -423.347)" fill="#7e14be" stroke="#7e14bc" stroke-width="1"/>
      <path id="Path_9" data-name="Path 9" d="M1370.057,1229.718l29.934,60,30.066-60-30.066-60Z" transform="translate(-1281 -235.469)" fill="#7e14be" stroke="#7e14bc" stroke-width="1"/>
      <path id="Path_10" data-name="Path 10" d="M1370.057,1229.718l29.934,60,30.066-60-30.066-60Z" transform="translate(-601 -210.418)" fill="#7e14be" stroke="#7e14bc" stroke-width="1"/>
      <path id="Path_11" data-name="Path 11" d="M1370.057,1229.718l29.934,60,30.066-60-30.066-60Z" transform="translate(-1063 130.913)" fill="#7e14be" stroke="#7e14bc" stroke-width="1"/>
      <path id="Path_12" data-name="Path 12" d="M1370.057,1229.718l29.934,60,30.066-60-30.066-60Z" transform="translate(-810 136.913)" fill="#7e14be" stroke="#7e14bc" stroke-width="1"/>
      <path id="Path_13" data-name="Path 13" d="M1370.057,1229.718l29.934,60,30.066-60-30.066-60Z" transform="translate(-938.333 202.913)" fill="#7e14be" stroke="#7e14bc" stroke-width="1"/>
      <path id="Path_14" data-name="Path 14" d="M1370.057,1229.718l29.934,60,30.066-60-30.066-60Z" transform="translate(-938.333 -457.791)" fill="#7e14be" stroke="#7e14bc" stroke-width="1"/>
    </g>
  </g>
</svg>
