<svg xmlns="http://www.w3.org/2000/svg" xmlns:xlink="http://www.w3.org/1999/xlink" width="375" height="812" viewBox="0 0 375 812">
  <defs>
    <clipPath id="clip-_3">
      <rect width="375" height="812"/>
    </clipPath>
  </defs>
  <g id="_3" data-name="3" clip-path="url(#clip-_3)">
    <rect width="375" height="812" fill="#fff"/>
    <g id="Logo" transform="translate(121.942 331.282)">
      <path id="Path_2" data-name="Path 2" d="M1430.057,1229.718l-29.934-60-30.066,60,30.066,60Z" transform="translate(-1334.942 -1118.782)" fill="#7e14be" stroke="#7e14bc" stroke-width="1"/>
      <path id="Path_3" data-name="Path 3" d="M1430.057,1229.718l-29.934-60-30.066,60,30.066,60Z" transform="translate(-1334.942 -1118.782)" fill="#7e14be" stroke="#7e14bc" stroke-width="1"/>
      <path id="Path_4" data-name="Path 4" d="M1430.057,1229.718l-29.934-60-30.066,60,30.066,60Z" transform="translate(-1334.942 -1118.782)" fill="#7e14be" stroke="#7e14bc" stroke-width="1"/>
      <path id="Path_5" data-name="Path 5" d="M1430.057,1229.718l-29.934-60-30.066,60,30.066,60Z" transform="translate(-1334.942 -1118.782)" fill="#7e14be" stroke="#7e14bc" stroke-width="1"/>
      <path id="Path_6" data-name="Path 6" d="M1430.057,1229.718l-29.934-60-30.066,60,30.066,60Z" transform="translate(-1334.942 -1118.782)" fill="#7e14be" stroke="#7e14bc" stroke-width="1"/>
      <path id="Path_7" data-name="Path 7" d="M1430.057,1229.718l-29.934-60-30.066,60,30.066,60Z" transform="translate(-1334.942 -1118.782)" fill="#7e14be" stroke="#7e14bc" stroke-width="1"/>
      <path id="Path_8" data-name="Path 8" d="M1430.057,1229.718l-29.934-60-30.066,60,30.066,60Z" transform="translate(-1334.942 -1118.782)" fill="#7e14be" stroke="#7e14bc" stroke-width="1"/>
      <path id="Path_9" data-name="Path 9" d="M1430.057,1229.718l-29.934-60-30.066,60,30.066,60Z" transform="translate(-1334.942 -1118.782)" fill="#7e14be" stroke="#7e14bc" stroke-width="1"/>
      <path id="Path_10" data-name="Path 10" d="M1430.057,1229.718l-29.934-60-30.066,60,30.066,60Z" transform="translate(-1334.942 -1118.782)" fill="#7e14be" stroke="#7e14bc" stroke-width="1"/>
      <path id="Path_11" data-name="Path 11" d="M1430.057,1229.718l-29.934-60-30.066,60,30.066,60Z" transform="translate(-1334.942 -1118.782)" fill="#7e14be" stroke="#7e14bc" stroke-width="1"/>
      <path id="Path_12" data-name="Path 12" d="M1430.057,1229.718l-29.934-60-30.066,60,30.066,60Z" transform="translate(-1334.942 -1118.782)" fill="#7e14be" stroke="#7e14bc" stroke-width="1"/>
      <path id="Path_13" data-name="Path 13" d="M1430.057,1229.718l-29.934-60-30.066,60,30.066,60Z" transform="translate(-1334.942 -1118.782)" fill="#7e14be" stroke="#7e14bc" stroke-width="1"/>
      <path id="Path_14" data-name="Path 14" d="M1430.057,1229.718l-29.934-60-30.066,60,30.066,60Z" transform="translate(-1334.942 -1118.782)" fill="#7e14be" stroke="#7e14bc" stroke-width="1"/>
    </g>
    <g id="Path_18" data-name="Path 18" transform="translate(0 799.614)" fill="#7e14be" opacity="0">
      <path d="M 374.5 1037.8857421875 L 0.5 1037.8857421875 L 0.5 253.8454132080078 L 0.5 18.37129592895508 C 0.7878081202507019 17.63668823242188 2.910937070846558 12.27781391143799 6.559384822845459 4.632641792297363 C 10.1695384979248 -2.931973695755005 16.05430793762207 -14.3458194732666 23.58707618713379 -25.76289749145508 C 32.04307556152344 -38.57920455932617 40.80892181396484 -48.78659057617188 49.64138412475586 -56.10197448730469 C 54.8716926574707 -60.43381881713867 60.18215560913086 -63.78474426269531 65.42523193359375 -66.06182098388672 C 71.17676544189453 -68.55950927734375 76.99015045166016 -69.82597351074219 82.70400238037109 -69.82597351074219 C 86.57691955566406 -69.82597351074219 90.49015045166016 -69.24382019042969 94.33522796630859 -68.09566497802734 C 98.37969207763672 -66.88796997070313 102.4618453979492 -65.02027893066406 106.4683074951172 -62.54443359375 C 110.6706161499023 -59.94766616821289 114.9061508178711 -56.60982131958008 119.0572280883789 -52.62366485595703 C 123.3964614868164 -48.45674133300781 127.7636947631836 -43.46628189086914 132.0373840332031 -37.79043579101563 C 136.4906158447266 -31.87643432617188 140.9660034179688 -25.05412673950195 145.3395385742188 -17.51320457458496 C 149.8841552734375 -9.676742553710938 154.4455413818359 -0.8456659317016602 158.8967742919922 8.735103607177734 C 163.5116882324219 18.66818046569824 168.1373901367188 29.68494987487793 172.6453857421875 41.47925567626953 C 177.3101501464844 53.68341064453125 181.9793853759766 67.06233215332031 186.5238494873047 81.24449157714844 C 193.33154296875 102.489875793457 200.3775329589844 121.1424865722656 207.46630859375 136.6844940185547 C 214.197998046875 151.4435577392578 221.1450805664063 163.7855682373047 228.1149291992188 173.3675689697266 C 231.4606170654297 177.9672546386719 234.8798522949219 182.0247955322266 238.2779998779297 185.4275665283203 C 241.5832366943359 188.7374114990234 244.9595336914063 191.5189514160156 248.3129272460938 193.6950988769531 C 251.5727691650391 195.8103332519531 254.900146484375 197.4114074707031 258.2026062011719 198.4538726806641 C 261.4061584472656 199.4649505615234 264.6721496582031 199.9777221679688 267.9098510742188 199.9777221679688 C 281.9760131835938 199.9777221679688 296.3903198242188 190.3854064941406 310.7523193359375 171.4674072265625 C 322.1875305175781 156.4048004150391 333.6327819824219 135.4120330810547 344.7699890136719 109.0721817016602 C 349.1427612304688 98.73049163818359 353.4786071777344 87.52864074707031 357.6567687988281 75.77771759033203 C 360.9989318847656 66.37802886962891 364.2484741210938 56.60771942138672 367.3150634765625 46.73818206787109 C 370.7833557128906 35.57620239257813 373.2356567382813 26.79050445556641 374.5 22.11537170410156 L 374.5 1037.8857421875 Z" stroke="none"/>
      <path d="M 82.70416259765625 -69.32611083984375 C 77.060302734375 -69.3251953125 71.3150634765625 -68.072265625 65.62783813476563 -65.6024169921875 C 60.4290771484375 -63.34442138671875 55.15985107421875 -60.01904296875 49.96661376953125 -55.71856689453125 C 41.17337036132813 -48.436767578125 32.4415283203125 -38.26922607421875 24.01370239257813 -25.498291015625 C 16.49615478515625 -14.1070556640625 10.62216186523438 -2.71612548828125 7.018157958984375 4.83355712890625 C 3.49212646484375 12.219970703125 1.392486572265625 17.469482421875 1 18.46600341796875 L 1 253.8453979492188 L 1 1037.3857421875 L 374 1037.3857421875 L 374 25.82891845703125 C 372.6114196777344 30.82781982421875 370.5144653320313 38.1265869140625 367.7926025390625 46.886474609375 C 364.7239990234375 56.7623291015625 361.4723205566406 66.53912353515625 358.1278381347656 75.94525146484375 C 353.9464721679688 87.70526123046875 349.6070861816406 98.91619873046875 345.2306213378906 109.2667846679688 C 334.0770874023438 135.6449584960938 322.6107788085938 156.6740112304688 311.1506042480469 171.7697143554688 C 296.6889343261719 190.8187866210938 282.140625 200.4775390625 267.9098510742188 200.4775390625 C 264.62109375 200.4775390625 261.304443359375 199.9570922851563 258.0521545410156 198.9306640625 C 254.7066040039063 197.8746337890625 251.3383178710938 196.254150390625 248.040771484375 194.114501953125 C 244.6578521728516 191.9192504882813 241.254150390625 189.1154174804688 237.9241485595703 185.7808227539063 C 234.5078430175781 182.3595581054688 231.0713806152344 178.2821655273438 227.7104644775391 173.6615600585938 C 220.7210693359375 164.052490234375 213.7569274902344 151.681396484375 207.0113830566406 136.891845703125 C 199.9146118164063 121.33203125 192.8613891601563 102.6609497070313 186.0476989746094 81.39678955078125 C 181.5061492919922 67.223388671875 176.83984375 53.85308837890625 172.178466796875 41.65740966796875 C 167.6744689941406 29.87371826171875 163.0533905029297 18.86773681640625 158.4432373046875 8.9449462890625 C 153.9984588623047 -0.62225341796875 149.4441528320313 -9.4403076171875 144.9069213867188 -17.2637939453125 C 140.5435333251953 -24.787841796875 136.0792236328125 -31.593505859375 131.6380004882813 -37.4918212890625 C 127.3803100585938 -43.14642333984375 123.0310821533203 -48.11688232421875 118.7109375 -52.26519775390625 C 114.5852355957031 -56.22705078125 110.377685546875 -59.543212890625 106.2053833007813 -62.121337890625 C 102.2362976074219 -64.573974609375 98.19461059570313 -66.42333984375 94.19232177734375 -67.61810302734375 C 90.39352416992188 -68.75213623046875 86.52847290039063 -69.32672119140625 82.70416259765625 -69.32611083984375 M 82.70404052734375 -70.32611083984375 C 113.41162109375 -70.33123779296875 149.8519287109375 -34.83935546875 187 81.09173583984375 C 215.0175170898438 168.5283813476563 242.7305297851563 199.4776000976563 267.9098815917969 199.4776000976563 C 328.85546875 199.4776000976563 375 18.27728271484375 375 18.27728271484375 L 375 1038.3857421875 L 0 1038.3857421875 C 0 1038.3857421875 0 508.8726501464844 0 253.8453979492188 C 0 32.595703125 0 17.9361572265625 0 17.9361572265625 L 0 18.27728271484375 C 0 18.27728271484375 34.19369506835938 -70.31787109375 82.70404052734375 -70.32611083984375 Z" stroke="none" fill="#707070"/>
    </g>
  </g>
</svg>
